<svg width="46" height="46" viewBox="0 0 46 46" fill="none" xmlns="http://www.w3.org/2000/svg">
<rect width="46" height="46" rx="11.5" fill="url(#paint0_linear_24_26)"/>
<path d="M11.5324 30.071C13.4797 28.507 15.0054 27.2267 16.1094 26.23C17.2134 25.218 18.141 24.1677 18.8924 23.079C19.659 21.975 20.0424 20.894 20.0424 19.836C20.0424 18.8393 19.797 18.0573 19.3064 17.49C18.831 16.9073 18.0567 16.616 16.9834 16.616C15.9407 16.616 15.128 16.9457 14.5454 17.605C13.978 18.249 13.6714 19.1153 13.6254 20.204H11.6014C11.6627 18.4867 12.184 17.1603 13.1654 16.225C14.1467 15.2897 15.4117 14.822 16.9604 14.822C18.5397 14.822 19.7894 15.259 20.7094 16.133C21.6447 17.007 22.1124 18.2107 22.1124 19.744C22.1124 21.0167 21.729 22.2587 20.9624 23.47C20.211 24.666 19.3524 25.724 18.3864 26.644C17.4204 27.5487 16.186 28.6067 14.6834 29.818H22.5954V31.566H11.5324V30.071ZM24.4399 26.046C24.8385 23.8073 25.9195 22.688 27.6829 22.688C28.0969 22.688 28.4649 22.7647 28.7869 22.918C29.1242 23.056 29.4999 23.263 29.9139 23.539C30.2819 23.769 30.5809 23.9377 30.8109 24.045C31.0562 24.1523 31.3092 24.206 31.5699 24.206C31.9685 24.206 32.3059 24.0757 32.5819 23.815C32.8732 23.539 33.0495 23.171 33.1109 22.711H34.6749C34.2915 24.9497 33.2029 26.069 31.4089 26.069C31.0102 26.069 30.6575 26 30.3509 25.862C30.0442 25.724 29.6685 25.517 29.2239 25.241C28.8559 25.011 28.5569 24.8423 28.3269 24.735C28.0969 24.6123 27.8362 24.551 27.5449 24.551C27.1462 24.551 26.8012 24.689 26.5099 24.965C26.2185 25.2257 26.0422 25.586 25.9809 26.046H24.4399Z" fill="white"/>
<defs>
<linearGradient id="paint0_linear_24_26" x1="23" y1="0" x2="23" y2="46" gradientUnits="userSpaceOnUse">
<stop stop-color="#C4C4C4" stop-opacity="0"/>
<stop offset="0.0001" stop-color="#99A4FB"/>
<stop offset="1" stop-color="#747EF9"/>
</linearGradient>
</defs>
</svg>
