<svg width="16" height="16" viewBox="0 0 16 16" fill="none" xmlns="http://www.w3.org/2000/svg">
<path d="M8 16C12.4183 16 16 12.4183 16 8C16 3.58172 12.4183 0 8 0C3.58172 0 0 3.58172 0 8C0 12.4183 3.58172 16 8 16Z" fill="url(#paint0_radial_27_80)"/>
<g style="mix-blend-mode:soft-light">
<path d="M8 16C12.4183 16 16 12.4183 16 8C16 3.58172 12.4183 0 8 0C3.58172 0 0 3.58172 0 8C0 12.4183 3.58172 16 8 16Z" fill="url(#paint1_radial_27_80)"/>
</g>
<g style="mix-blend-mode:soft-light">
<path d="M8 16C12.4183 16 16 12.4183 16 8C16 3.58172 12.4183 0 8 0C3.58172 0 0 3.58172 0 8C0 12.4183 3.58172 16 8 16Z" fill="url(#paint2_radial_27_80)"/>
</g>
<g style="mix-blend-mode:overlay">
<path d="M8 16C12.4183 16 16 12.4183 16 8C16 3.58172 12.4183 0 8 0C3.58172 0 0 3.58172 0 8C0 12.4183 3.58172 16 8 16Z" fill="url(#paint3_radial_27_80)" fill-opacity="0.7"/>
</g>
<mask id="mask0_27_80" style="mask-type:alpha" maskUnits="userSpaceOnUse" x="0" y="0" width="16" height="16">
<path d="M8 16C12.4183 16 16 12.4183 16 8C16 3.58172 12.4183 0 8 0C3.58172 0 0 3.58172 0 8C0 12.4183 3.58172 16 8 16Z" fill="white"/>
</mask>
<g mask="url(#mask0_27_80)">
<g filter="url(#filter0_f_27_80)">
<path d="M-0.0456176 7.77181C-0.0369308 7.65815 0.000475849 7.64676 0.0113862 7.76218C0.0235077 7.89042 -5.544e-05 8.14822 0.00561753 8.30373C0.0206385 8.71548 0.0837568 9.07349 0.148825 9.36471C0.358508 10.3031 0.648887 10.9079 0.919727 11.4202C1.81 13.1043 2.78522 13.9571 3.73657 14.5998C5.1311 15.542 6.53696 15.8416 7.94397 15.9052C7.97946 15.9068 7.98537 16.138 7.95045 16.1681C7.8875 16.2223 7.8095 16.1685 7.74508 16.1662C7.56 16.1597 7.37493 16.147 7.18987 16.1278C6.64112 16.0708 6.09242 15.9547 5.54481 15.7678C4.0559 15.2598 2.45052 14.39 1.04851 11.9401C0.960308 11.786 0.872809 11.6237 0.786547 11.4493C0.717562 11.3099 0.649248 11.1637 0.582136 11.0074C0.361397 10.4932 -0.153001 9.17689 -0.0456176 7.77181ZM7.94495 16.1706C7.9111 16.1716 7.90252 15.9561 7.9348 15.9114C7.98357 15.8437 8.05668 15.8994 8.10811 15.8962C8.32168 15.8829 8.53521 15.8631 8.74867 15.8362C9.33396 15.7627 9.91884 15.6373 10.5024 15.444C11.9498 14.9647 13.5059 14.2339 14.8704 11.9888C14.9572 11.8459 15.0433 11.6944 15.1283 11.5314C15.3864 11.0362 16.0332 9.72174 15.9585 8.08767C15.9522 7.94992 15.9941 7.86741 16.0129 7.98558C16.0368 8.13604 16.0271 8.44972 16.0205 8.61663C15.9994 9.15118 15.9173 9.60324 15.8307 9.96832C15.5564 11.1253 15.1713 11.7962 14.8186 12.3563C13.6723 14.1769 12.4272 14.9109 11.2167 15.4383C10.131 15.9114 9.03706 16.1368 7.94495 16.1706Z" fill="#401C02"/>
</g>
<g filter="url(#filter1_f_27_80)">
<path d="M-0.0456176 7.77181C-0.0369308 7.65815 0.000475849 7.64676 0.0113862 7.76218C0.0235077 7.89042 -5.544e-05 8.14822 0.00561753 8.30373C0.0206385 8.71548 0.0837568 9.07349 0.148825 9.36471C0.358508 10.3031 0.648887 10.9079 0.919727 11.4202C1.81 13.1043 2.78522 13.9571 3.73657 14.5998C5.1311 15.542 6.53696 15.8416 7.94397 15.9052C7.97946 15.9068 7.98537 16.138 7.95045 16.1681C7.8875 16.2223 7.8095 16.1685 7.74508 16.1662C7.56 16.1597 7.37493 16.147 7.18987 16.1278C6.64112 16.0708 6.09242 15.9547 5.54481 15.7678C4.0559 15.2598 2.45052 14.39 1.04851 11.9401C0.960308 11.786 0.872809 11.6237 0.786547 11.4493C0.717562 11.3099 0.649248 11.1637 0.582136 11.0074C0.361397 10.4932 -0.153001 9.17689 -0.0456176 7.77181ZM7.94495 16.1706C7.9111 16.1716 7.90252 15.9561 7.9348 15.9114C7.98357 15.8437 8.05668 15.8994 8.10811 15.8962C8.32168 15.8829 8.53521 15.8631 8.74867 15.8362C9.33396 15.7627 9.91884 15.6373 10.5024 15.444C11.9498 14.9647 13.5059 14.2339 14.8704 11.9888C14.9572 11.8459 15.0433 11.6944 15.1283 11.5314C15.3864 11.0362 16.0332 9.72174 15.9585 8.08767C15.9522 7.94992 15.9941 7.86741 16.0129 7.98558C16.0368 8.13604 16.0271 8.44972 16.0205 8.61663C15.9994 9.15118 15.9173 9.60324 15.8307 9.96832C15.5564 11.1253 15.1713 11.7962 14.8186 12.3563C13.6723 14.1769 12.4272 14.9109 11.2167 15.4383C10.131 15.9114 9.03706 16.1368 7.94495 16.1706Z" fill="#401C02"/>
</g>
</g>
<path d="M3.37168 7.82891C3.46589 7.77031 3.56053 7.71281 3.65562 7.65642C3.80157 7.56852 3.94818 7.48328 4.09413 7.3977L4.53165 7.14427L4.96452 6.89152C5.25011 6.72268 5.53272 6.55219 5.79178 6.37273C5.91465 6.28901 6.03168 6.19703 6.14206 6.09742C6.17493 6.06702 6.20594 6.03468 6.23494 6.00057C6.24576 5.9915 6.25448 5.98018 6.26048 5.9674V5.9674C6.26632 5.95458 6.26937 5.94068 6.26944 5.9266C6.26949 5.91275 6.26655 5.89906 6.26081 5.88646C6.25397 5.87141 6.24362 5.85821 6.23063 5.84798C6.20282 5.81501 6.1729 5.78388 6.14107 5.75477C6.03071 5.6551 5.91356 5.56322 5.79046 5.47979C5.53173 5.30034 5.24879 5.13018 4.96352 4.96101L4.53231 4.70858L4.09479 4.45483C3.94918 4.36925 3.80223 4.28401 3.65628 4.19577C3.56097 4.13916 3.466 4.08145 3.37135 4.02262C3.36255 4.01858 3.35572 4.0112 3.35236 4.00212C3.34901 3.99304 3.34939 3.98299 3.35344 3.97419C3.35749 3.9654 3.36486 3.95857 3.37394 3.95521C3.38303 3.95185 3.39307 3.95224 3.40187 3.95628C3.51498 3.97784 3.62643 4.00305 3.73755 4.02959C3.90838 4.07039 4.07688 4.1165 4.24472 4.16559C4.32864 4.19046 4.41057 4.217 4.49483 4.24321C4.57908 4.26941 4.66068 4.29827 4.74294 4.32646C4.90813 4.38352 5.07155 4.44521 5.2332 4.51155C5.56111 4.64244 5.87877 4.79767 6.18352 4.97594C6.34423 5.06997 6.4965 5.17773 6.63862 5.29802C6.71868 5.36682 6.79138 5.44375 6.85555 5.52756C6.86418 5.53884 6.87247 5.5521 6.8811 5.56438C6.88972 5.57665 6.89768 5.58892 6.90564 5.60352L6.92952 5.64531C6.93682 5.66057 6.94445 5.67649 6.95142 5.69208C6.98513 5.76485 7.0026 5.84408 7.0026 5.92427C7.0026 6.00447 6.98513 6.0837 6.95142 6.15647C6.94412 6.17239 6.93682 6.18798 6.92919 6.20357L6.90564 6.24536C6.89735 6.25962 6.88906 6.2719 6.88076 6.2845C6.87247 6.29711 6.86385 6.30971 6.85522 6.32132C6.79123 6.40518 6.71851 6.48202 6.63829 6.55053C6.49608 6.67071 6.34382 6.77846 6.18319 6.87261C5.8783 7.05062 5.56066 7.20584 5.23287 7.33699C5.07066 7.40333 4.90813 7.46503 4.74261 7.52175C4.57709 7.57847 4.41091 7.63254 4.24506 7.68263C4.0792 7.73272 3.90871 7.77816 3.73788 7.81896C3.62743 7.84549 3.5163 7.8707 3.40386 7.8926C3.39568 7.89517 3.38686 7.89475 3.37896 7.89142C3.37106 7.88809 3.3646 7.88206 3.36074 7.87441C3.35687 7.86676 3.35585 7.85798 3.35785 7.84965C3.35986 7.84132 3.36476 7.83396 3.37168 7.82891Z" fill="url(#paint4_radial_27_80)"/>
<path d="M12.6213 4.0214C12.5271 4.08 12.4325 4.13749 12.3374 4.19388C12.1914 4.28179 12.0445 4.36703 11.8989 4.45261L11.4604 4.70603L11.0291 4.95945C10.7432 5.12829 10.4606 5.29879 10.2019 5.47824C10.079 5.56204 9.96184 5.65402 9.85127 5.75355C9.81851 5.78395 9.78761 5.81629 9.75873 5.85041C9.74784 5.85949 9.73902 5.8708 9.73285 5.88358V5.88358C9.72689 5.89634 9.72383 5.91028 9.7239 5.92438C9.72385 5.93818 9.72667 5.95185 9.73219 5.96451C9.73914 5.9795 9.74947 5.99267 9.76238 6.00299C9.79028 6.03588 9.82019 6.06701 9.85194 6.0962C9.96236 6.19579 10.0795 6.28767 10.2025 6.37118C10.4616 6.55063 10.7442 6.72079 11.0298 6.88996L11.461 7.14239L11.8982 7.39614C12.0442 7.48172 12.1911 7.56697 12.3367 7.6552C12.4322 7.71181 12.5273 7.76953 12.622 7.82835C12.6308 7.83244 12.6376 7.83986 12.6409 7.84897C12.6442 7.85808 12.6438 7.86814 12.6397 7.87694C12.6356 7.88574 12.6282 7.89255 12.6191 7.89588C12.61 7.89921 12.5999 7.89878 12.5911 7.89469C12.4784 7.87313 12.3669 7.84792 12.2558 7.82138C12.085 7.78058 11.9165 7.73448 11.7486 7.68538C11.6647 7.66051 11.5828 7.63397 11.4982 7.60777C11.4136 7.58156 11.3323 7.5527 11.2501 7.52451C11.0849 7.46746 10.9215 7.40576 10.7598 7.33942C10.4319 7.20846 10.1143 7.05324 9.80948 6.87504C9.64923 6.78043 9.49742 6.67223 9.35571 6.55163C9.27577 6.48281 9.20318 6.40588 9.13911 6.32209C9.13048 6.31081 9.12219 6.29754 9.11357 6.28527C9.10463 6.27271 9.09644 6.25964 9.08902 6.24613L9.06514 6.20433C9.05751 6.18907 9.05021 6.17315 9.04325 6.15756C9.00953 6.0848 8.99207 6.00557 8.99207 5.92537C8.99207 5.84518 9.00953 5.76594 9.04325 5.69318C9.05054 5.67726 9.05751 5.66001 9.06514 5.64608L9.08902 5.60428C9.09698 5.59002 9.10527 5.57775 9.1139 5.56514C9.12252 5.55254 9.13082 5.53993 9.13911 5.52832C9.20331 5.44453 9.27613 5.3677 9.35637 5.29912C9.49852 5.17886 9.65079 5.0711 9.81147 4.97703C10.1164 4.79902 10.434 4.6438 10.7618 4.51265C10.9237 4.44631 11.0865 4.38461 11.2521 4.32789C11.4176 4.27117 11.5838 4.2171 11.7496 4.16702C11.9155 4.11693 12.0866 4.07082 12.2564 4.03069C12.3672 4.00415 12.4784 3.97894 12.5908 3.95705C12.599 3.95479 12.6077 3.95549 12.6155 3.95903C12.6232 3.96258 12.6294 3.96873 12.6331 3.97641C12.6367 3.9841 12.6375 3.99282 12.6354 4.00105C12.6332 4.00927 12.6283 4.01648 12.6213 4.0214Z" fill="url(#paint5_radial_27_80)"/>
<path d="M3.37168 7.82891C3.46589 7.77031 3.56053 7.71281 3.65562 7.65642C3.80157 7.56852 3.94818 7.48328 4.09413 7.3977L4.53165 7.14427L4.96452 6.89152C5.25011 6.72268 5.53272 6.55219 5.79178 6.37273C5.91465 6.28901 6.03168 6.19703 6.14206 6.09742C6.17493 6.06702 6.20594 6.03468 6.23494 6.00057C6.24576 5.9915 6.25448 5.98018 6.26048 5.9674V5.9674C6.26632 5.95458 6.26937 5.94068 6.26944 5.9266C6.26949 5.91275 6.26655 5.89906 6.26081 5.88646C6.25397 5.87141 6.24362 5.85821 6.23063 5.84798C6.20282 5.81501 6.1729 5.78388 6.14107 5.75477C6.03071 5.6551 5.91356 5.56322 5.79046 5.47979C5.53173 5.30034 5.24879 5.13018 4.96352 4.96101L4.53231 4.70858L4.09479 4.45483C3.94918 4.36925 3.80223 4.28401 3.65628 4.19577C3.56097 4.13916 3.466 4.08145 3.37135 4.02262C3.36255 4.01858 3.35572 4.0112 3.35236 4.00212C3.34901 3.99304 3.34939 3.98299 3.35344 3.97419C3.35749 3.9654 3.36486 3.95857 3.37394 3.95521C3.38303 3.95185 3.39307 3.95224 3.40187 3.95628C3.51498 3.97784 3.62643 4.00305 3.73755 4.02959C3.90838 4.07039 4.07688 4.1165 4.24472 4.16559C4.32864 4.19046 4.41057 4.217 4.49483 4.24321C4.57908 4.26941 4.66068 4.29827 4.74294 4.32646C4.90813 4.38352 5.07155 4.44521 5.2332 4.51155C5.56111 4.64244 5.87877 4.79767 6.18352 4.97594C6.34423 5.06997 6.4965 5.17773 6.63862 5.29802C6.71868 5.36682 6.79138 5.44375 6.85555 5.52756C6.86418 5.53884 6.87247 5.5521 6.8811 5.56438C6.88972 5.57665 6.89768 5.58892 6.90564 5.60352L6.92952 5.64531C6.93682 5.66057 6.94445 5.67649 6.95142 5.69208C6.98513 5.76485 7.0026 5.84408 7.0026 5.92427C7.0026 6.00447 6.98513 6.0837 6.95142 6.15647C6.94412 6.17239 6.93682 6.18798 6.92919 6.20357L6.90564 6.24536C6.89735 6.25962 6.88906 6.2719 6.88076 6.2845C6.87247 6.29711 6.86385 6.30971 6.85522 6.32132C6.79123 6.40518 6.71851 6.48202 6.63829 6.55053C6.49608 6.67071 6.34382 6.77846 6.18319 6.87261C5.8783 7.05062 5.56066 7.20584 5.23287 7.33699C5.07066 7.40333 4.90813 7.46503 4.74261 7.52175C4.57709 7.57847 4.41091 7.63254 4.24506 7.68263C4.0792 7.73272 3.90871 7.77816 3.73788 7.81896C3.62743 7.84549 3.5163 7.8707 3.40386 7.8926C3.39568 7.89517 3.38686 7.89475 3.37896 7.89142C3.37106 7.88809 3.3646 7.88206 3.36074 7.87441C3.35687 7.86676 3.35585 7.85798 3.35785 7.84965C3.35986 7.84132 3.36476 7.83396 3.37168 7.82891Z" stroke="url(#paint6_linear_27_80)" stroke-width="0.0678331" stroke-miterlimit="10"/>
<path d="M12.6213 4.0214C12.5271 4.08 12.4325 4.13749 12.3374 4.19388C12.1914 4.28179 12.0445 4.36703 11.8989 4.45261L11.4604 4.70603L11.0291 4.95945C10.7432 5.12829 10.4606 5.29879 10.2019 5.47824C10.079 5.56204 9.96184 5.65402 9.85127 5.75355C9.81851 5.78395 9.78761 5.81629 9.75873 5.85041C9.74784 5.85949 9.73902 5.8708 9.73285 5.88358V5.88358C9.72689 5.89634 9.72383 5.91028 9.7239 5.92438C9.72385 5.93818 9.72667 5.95185 9.73219 5.96451C9.73914 5.9795 9.74947 5.99267 9.76238 6.00299C9.79028 6.03588 9.82019 6.06701 9.85194 6.0962C9.96236 6.19579 10.0795 6.28767 10.2025 6.37118C10.4616 6.55063 10.7442 6.72079 11.0298 6.88996L11.461 7.14239L11.8982 7.39614C12.0442 7.48172 12.1911 7.56697 12.3367 7.6552C12.4322 7.71181 12.5273 7.76953 12.622 7.82835C12.6308 7.83244 12.6376 7.83986 12.6409 7.84897C12.6442 7.85808 12.6438 7.86814 12.6397 7.87694C12.6356 7.88574 12.6282 7.89255 12.6191 7.89588C12.61 7.89921 12.5999 7.89878 12.5911 7.89469C12.4784 7.87313 12.3669 7.84792 12.2558 7.82138C12.085 7.78058 11.9165 7.73448 11.7486 7.68538C11.6647 7.66051 11.5828 7.63397 11.4982 7.60777C11.4136 7.58156 11.3323 7.5527 11.2501 7.52451C11.0849 7.46746 10.9215 7.40576 10.7598 7.33942C10.4319 7.20846 10.1143 7.05324 9.80948 6.87504C9.64923 6.78043 9.49742 6.67223 9.35571 6.55163C9.27577 6.48281 9.20318 6.40588 9.13911 6.32209C9.13048 6.31081 9.12219 6.29754 9.11357 6.28527C9.10463 6.27271 9.09644 6.25964 9.08902 6.24613L9.06514 6.20433C9.05751 6.18907 9.05021 6.17315 9.04325 6.15756C9.00953 6.0848 8.99207 6.00557 8.99207 5.92537C8.99207 5.84518 9.00953 5.76594 9.04325 5.69318C9.05054 5.67726 9.05751 5.66001 9.06514 5.64608L9.08902 5.60428C9.09698 5.59002 9.10527 5.57775 9.1139 5.56514C9.12252 5.55254 9.13082 5.53993 9.13911 5.52832C9.20331 5.44453 9.27613 5.3677 9.35637 5.29912C9.49852 5.17886 9.65079 5.0711 9.81147 4.97703C10.1164 4.79902 10.434 4.6438 10.7618 4.51265C10.9237 4.44631 11.0865 4.38461 11.2521 4.32789C11.4176 4.27117 11.5838 4.2171 11.7496 4.16702C11.9155 4.11693 12.0866 4.07082 12.2564 4.03069C12.3672 4.00415 12.4784 3.97894 12.5908 3.95705C12.599 3.95479 12.6077 3.95549 12.6155 3.95903C12.6232 3.96258 12.6294 3.96873 12.6331 3.97641C12.6367 3.9841 12.6375 3.99282 12.6354 4.00105C12.6332 4.00927 12.6283 4.01648 12.6213 4.0214Z" stroke="url(#paint7_linear_27_80)" stroke-width="0.0678331" stroke-miterlimit="10"/>
<path d="M13.2829 10.1479C12.801 11.1388 12.05 11.9741 11.1159 12.5585C10.1818 13.1429 9.1021 13.4528 8.00022 13.4528C6.89835 13.4528 5.81868 13.1429 4.88455 12.5585C3.95043 11.9741 3.19949 11.1388 2.71753 10.1479C4.25829 10.6859 6.06773 10.9957 8.00022 10.9957C9.93272 10.9957 11.7422 10.6859 13.2829 10.1479Z" fill="url(#paint8_radial_27_80)"/>
<path d="M13.7825 8.60944C13.7765 8.64261 13.7702 8.67578 13.7635 8.7106C13.7569 8.74543 13.7516 8.77164 13.745 8.80182C13.745 8.80779 13.7426 8.81343 13.7413 8.81907C13.735 8.84992 13.7281 8.88044 13.7211 8.91095C13.7141 8.94147 13.7078 8.96635 13.7009 8.99388C13.6969 9.01046 13.6929 9.02705 13.6882 9.04363C13.6866 9.05093 13.6846 9.05856 13.6826 9.06586C13.6783 9.08311 13.6737 9.09903 13.669 9.11727C13.669 9.12391 13.6657 9.13054 13.6637 9.13717C13.6573 9.16062 13.6507 9.18417 13.6438 9.20783C13.6348 9.241 13.6252 9.27151 13.6156 9.30336V9.30535C13.6063 9.3352 13.597 9.36539 13.5871 9.39524C13.5655 9.46158 13.543 9.52792 13.5207 9.59426C13.5091 9.62743 13.4972 9.65762 13.4852 9.6888C13.4733 9.71998 13.4647 9.74187 13.4541 9.7684C13.4381 9.80821 13.4209 9.84768 13.405 9.88682C13.394 9.9127 13.3828 9.93857 13.3718 9.96411L13.3701 9.96743C13.3592 9.9923 13.3479 10.0168 13.337 10.0414L13.3191 10.0799C13.3081 10.1031 13.2972 10.1263 13.2859 10.1492C11.7451 10.6872 9.9357 10.997 8.0032 10.997C6.0707 10.997 4.26126 10.6872 2.72051 10.1492C2.70923 10.1263 2.69828 10.1031 2.68734 10.0799L2.66943 10.0414C2.65815 10.0168 2.64687 9.9923 2.63626 9.96743L2.6346 9.96411C2.62332 9.93857 2.61204 9.9127 2.60143 9.88682C2.58451 9.84768 2.56826 9.80821 2.55233 9.7684C2.54172 9.74187 2.53144 9.71533 2.52115 9.6888C2.51087 9.66226 2.49727 9.6261 2.48566 9.59426C2.46178 9.52792 2.43922 9.46324 2.41766 9.39524C2.40771 9.36539 2.39842 9.3352 2.38914 9.30535V9.30336C2.37952 9.27019 2.3699 9.23967 2.36094 9.20783C2.35387 9.18439 2.34723 9.16084 2.34104 9.13717C2.33905 9.13054 2.33739 9.12391 2.33573 9.11727C2.33109 9.10036 2.32644 9.0841 2.32213 9.06586C2.32014 9.05856 2.31815 9.05093 2.31649 9.04363C2.31185 9.02705 2.30787 9.01046 2.30389 8.99388C2.29692 8.96635 2.29029 8.93848 2.28366 8.91095C2.27702 8.88342 2.26972 8.84992 2.26342 8.81907C2.26342 8.81343 2.26077 8.80779 2.25977 8.80182C2.25314 8.77164 2.24717 8.74112 2.2412 8.7106C2.23523 8.68009 2.22826 8.64426 2.22229 8.60944C3.86554 9.26123 5.85775 9.64302 8.00453 9.64302C10.1513 9.64302 12.1392 9.26123 13.7825 8.60944Z" fill="url(#paint9_linear_27_80)"/>
<path d="M13.2829 10.1479C11.7422 10.6859 9.93272 10.9957 8.00022 10.9957C6.06773 10.9957 4.25829 10.6859 2.71753 10.1479" stroke="url(#paint10_radial_27_80)" stroke-width="0.203499" stroke-miterlimit="10"/>
<mask id="mask1_27_80" style="mask-type:alpha" maskUnits="userSpaceOnUse" x="2" y="8" width="12" height="6">
<path d="M13.5994 8.64831C13.6177 8.64134 13.6376 8.63943 13.6569 8.64278C13.6762 8.64613 13.6942 8.6546 13.7091 8.66733C13.724 8.68005 13.7352 8.69655 13.7415 8.71509C13.7478 8.73363 13.749 8.75352 13.745 8.7727C13.4643 10.0879 12.7408 11.2669 11.6953 12.1128C10.6498 12.9587 9.34575 13.4202 8.00093 13.4202C6.65611 13.4202 5.35201 12.9587 4.30654 12.1128C3.26106 11.2669 2.53753 10.0879 2.25684 8.7727C2.25282 8.75352 2.25403 8.73363 2.26036 8.71509C2.26668 8.69655 2.27787 8.68005 2.29277 8.66733C2.30766 8.6546 2.3257 8.64613 2.345 8.64278C2.3643 8.63943 2.38415 8.64134 2.40246 8.64831C4.00955 9.25665 5.93343 9.61025 8.00093 9.61025C10.0684 9.61025 11.9923 9.25665 13.5994 8.64831Z" fill="url(#paint11_linear_27_80)"/>
</mask>
<g mask="url(#mask1_27_80)">
<g filter="url(#filter2_f_27_80)">
<path d="M13.5994 8.64831C13.6177 8.64134 13.6376 8.63943 13.6569 8.64278C13.6762 8.64613 13.6942 8.6546 13.7091 8.66733C13.724 8.68005 13.7352 8.69655 13.7415 8.71509C13.7478 8.73363 13.749 8.75352 13.745 8.7727C13.4643 10.0879 12.7408 11.2669 11.6953 12.1128C10.6498 12.9587 9.34575 13.4202 8.00093 13.4202C6.65611 13.4202 5.35201 12.9587 4.30654 12.1128C3.26106 11.2669 2.53753 10.0879 2.25684 8.7727C2.25282 8.75352 2.25403 8.73363 2.26036 8.71509C2.26668 8.69655 2.27787 8.68005 2.29277 8.66733C2.30766 8.6546 2.3257 8.64613 2.345 8.64278C2.3643 8.63943 2.38415 8.64134 2.40246 8.64831C4.00955 9.25665 5.93343 9.61025 8.00093 9.61025C10.0684 9.61025 11.9923 9.25665 13.5994 8.64831Z" stroke="url(#paint12_linear_27_80)" stroke-width="0.406999" stroke-miterlimit="10"/>
</g>
</g>
<path d="M2.40246 8.68078L2.45975 8.53021C2.41441 8.51296 2.36527 8.50823 2.31748 8.51651C2.26969 8.5248 2.22501 8.5458 2.18813 8.5773C2.15125 8.60881 2.12353 8.64966 2.10787 8.69556C2.09222 8.74147 2.08921 8.79075 2.09916 8.83822L2.09916 8.83822L2.09928 8.83879C2.38768 10.1901 3.13105 11.4015 4.2052 12.2705C5.27936 13.1396 6.61922 13.6138 8.00093 13.6138C9.38264 13.6138 10.7225 13.1396 11.7967 12.2705C12.8708 11.4015 13.6142 10.1901 13.9026 8.83879L13.9027 8.83822L13.5994 8.68078L13.5424 8.53011C13.5423 8.53012 13.5423 8.53013 13.5423 8.53015C11.955 9.13098 10.0506 9.48161 8.00093 9.48161C5.95118 9.48161 4.04681 9.13096 2.45949 8.53011L2.40246 8.68078ZM2.40246 8.68078C2.38415 8.67381 2.3643 8.6719 2.345 8.67525C2.3257 8.6786 2.30766 8.68707 2.29277 8.6998C2.27787 8.71252 2.26668 8.72902 2.26036 8.74756C2.25403 8.7661 2.25282 8.786 2.25684 8.80517L2.40246 8.68078Z" stroke="url(#paint13_linear_27_80)" stroke-width="0.322207" stroke-miterlimit="10"/>
<path d="M13.5994 8.68078C13.6177 8.67381 13.6376 8.6719 13.6569 8.67525C13.6762 8.6786 13.6942 8.68707 13.7091 8.6998C13.724 8.71252 13.7352 8.72902 13.7415 8.74756C13.7478 8.7661 13.749 8.786 13.745 8.80517C13.4643 10.1204 12.7408 11.2994 11.6953 12.1453C10.6498 12.9912 9.34575 13.4527 8.00093 13.4527C6.65611 13.4527 5.35201 12.9912 4.30654 12.1453C3.26106 11.2994 2.53753 10.1204 2.25684 8.80517C2.25282 8.786 2.25403 8.7661 2.26036 8.74756C2.26668 8.72902 2.27787 8.71252 2.29277 8.6998C2.30766 8.68707 2.3257 8.6786 2.345 8.67525C2.3643 8.6719 2.38415 8.67381 2.40246 8.68078C4.00955 9.28912 5.93343 9.64272 8.00093 9.64272C10.0684 9.64272 11.9923 9.28912 13.5994 8.68078Z" stroke="url(#paint14_linear_27_80)" stroke-width="0.406999" stroke-miterlimit="10"/>
<defs>
<filter id="filter0_f_27_80" x="-0.908094" y="6.83299" width="17.7841" height="10.2071" filterUnits="userSpaceOnUse" color-interpolation-filters="sRGB">
<feFlood flood-opacity="0" result="BackgroundImageFix"/>
<feBlend mode="normal" in="SourceGraphic" in2="BackgroundImageFix" result="shape"/>
<feGaussianBlur stdDeviation="0.423957" result="effect1_foregroundBlur_27_80"/>
</filter>
<filter id="filter1_f_27_80" x="-1.41684" y="6.32425" width="18.8016" height="11.2246" filterUnits="userSpaceOnUse" color-interpolation-filters="sRGB">
<feFlood flood-opacity="0" result="BackgroundImageFix"/>
<feBlend mode="normal" in="SourceGraphic" in2="BackgroundImageFix" result="shape"/>
<feGaussianBlur stdDeviation="0.678331" result="effect1_foregroundBlur_27_80"/>
</filter>
<filter id="filter2_f_27_80" x="1.71186" y="8.09852" width="12.5781" height="5.86437" filterUnits="userSpaceOnUse" color-interpolation-filters="sRGB">
<feFlood flood-opacity="0" result="BackgroundImageFix"/>
<feBlend mode="normal" in="SourceGraphic" in2="BackgroundImageFix" result="shape"/>
<feGaussianBlur stdDeviation="0.169583" result="effect1_foregroundBlur_27_80"/>
</filter>
<radialGradient id="paint0_radial_27_80" cx="0" cy="0" r="1" gradientUnits="userSpaceOnUse" gradientTransform="translate(7.99403) rotate(90) scale(15.9881)">
<stop stop-color="#FFDE43"/>
<stop offset="1" stop-color="#FFBC00"/>
</radialGradient>
<radialGradient id="paint1_radial_27_80" cx="0" cy="0" r="1" gradientUnits="userSpaceOnUse" gradientTransform="translate(7.99403 2.13948) rotate(90) scale(13.8486)">
<stop stop-color="white" stop-opacity="0.5"/>
<stop offset="0.782278"/>
</radialGradient>
<radialGradient id="paint2_radial_27_80" cx="0" cy="0" r="1" gradientUnits="userSpaceOnUse" gradientTransform="translate(7.99403 2.13948) rotate(90) scale(13.8486)">
<stop stop-color="white" stop-opacity="0.5"/>
<stop offset="0.782278"/>
</radialGradient>
<radialGradient id="paint3_radial_27_80" cx="0" cy="0" r="1" gradientUnits="userSpaceOnUse" gradientTransform="translate(7.99403 -1.74144) rotate(90) scale(17.7295 23.9766)">
<stop offset="0.0922635" stop-color="white"/>
<stop offset="0.670207" stop-color="white" stop-opacity="0"/>
</radialGradient>
<radialGradient id="paint4_radial_27_80" cx="0" cy="0" r="1" gradientUnits="userSpaceOnUse" gradientTransform="translate(5.17382 5.92229) scale(2.32802 1.97408)">
<stop stop-color="#743C1C"/>
<stop offset="1" stop-color="#401C02"/>
</radialGradient>
<radialGradient id="paint5_radial_27_80" cx="0" cy="0" r="1" gradientUnits="userSpaceOnUse" gradientTransform="translate(10.8151 5.92561) scale(2.32712 1.97459)">
<stop stop-color="#743C1C"/>
<stop offset="1" stop-color="#401C02"/>
</radialGradient>
<linearGradient id="paint6_linear_27_80" x1="5.17635" y1="8.00516" x2="5.17635" y2="3.82611" gradientUnits="userSpaceOnUse">
<stop stop-color="#FFDE43"/>
<stop offset="0.22" stop-color="#FED93F"/>
<stop offset="0.51" stop-color="#FCC934"/>
<stop offset="0.82" stop-color="#F9AF21"/>
<stop offset="1" stop-color="#F79D14"/>
</linearGradient>
<linearGradient id="paint7_linear_27_80" x1="10.8176" y1="8.00903" x2="10.8176" y2="3.82889" gradientUnits="userSpaceOnUse">
<stop stop-color="#FFDE43"/>
<stop offset="0.22" stop-color="#FED93F"/>
<stop offset="0.51" stop-color="#FCC934"/>
<stop offset="0.82" stop-color="#F9AF21"/>
<stop offset="1" stop-color="#F79D14"/>
</linearGradient>
<radialGradient id="paint8_radial_27_80" cx="0" cy="0" r="1" gradientUnits="userSpaceOnUse" gradientTransform="translate(8.00022 11.7937) scale(3.9875 3.33818)">
<stop stop-color="#743C1C"/>
<stop offset="1" stop-color="#401C02"/>
</radialGradient>
<linearGradient id="paint9_linear_27_80" x1="2.21786" y1="9.80368" x2="13.7825" y2="9.80368" gradientUnits="userSpaceOnUse">
<stop stop-color="#CCCCCC"/>
<stop offset="0.05" stop-color="#D5D5D5"/>
<stop offset="0.2" stop-color="#E9E9E9"/>
<stop offset="0.35" stop-color="#F6F6F6"/>
<stop offset="0.5" stop-color="#FAFAFA"/>
<stop offset="0.65" stop-color="#F6F6F6"/>
<stop offset="0.8" stop-color="#E9E9E9"/>
<stop offset="0.95" stop-color="#D5D5D5"/>
<stop offset="1" stop-color="#CCCCCC"/>
</linearGradient>
<radialGradient id="paint10_radial_27_80" cx="0" cy="0" r="1" gradientUnits="userSpaceOnUse" gradientTransform="translate(8.00022 10.5745) scale(3.77677)">
<stop stop-color="#401C02"/>
<stop offset="1" stop-color="#401C02"/>
</radialGradient>
<linearGradient id="paint11_linear_27_80" x1="5775.02" y1="3072.83" x2="5775.02" y2="2326.87" gradientUnits="userSpaceOnUse">
<stop stop-color="#401C02"/>
<stop offset="1" stop-color="#401C02"/>
</linearGradient>
<linearGradient id="paint12_linear_27_80" x1="5775.02" y1="3072.83" x2="5775.02" y2="2326.87" gradientUnits="userSpaceOnUse">
<stop stop-color="#401C02"/>
<stop offset="1" stop-color="#401C02"/>
</linearGradient>
<linearGradient id="paint13_linear_27_80" x1="8.00093" y1="13.5872" x2="8.00093" y2="8.51986" gradientUnits="userSpaceOnUse">
<stop offset="0.265625" stop-color="#FFDE43"/>
<stop offset="1" stop-color="#F79D14"/>
</linearGradient>
<linearGradient id="paint14_linear_27_80" x1="5775.03" y1="3072.86" x2="5775.03" y2="2326.9" gradientUnits="userSpaceOnUse">
<stop stop-color="#401C02"/>
<stop offset="1" stop-color="#401C02"/>
</linearGradient>
</defs>
</svg>
